<?xml version="1.0" standalone="no"?>
<!DOCTYPE svg PUBLIC "-//W3C//DTD SVG 20010904//EN"
 "http://www.w3.org/TR/2001/REC-SVG-20010904/DTD/svg10.dtd">
<svg version="1.0" xmlns="http://www.w3.org/2000/svg"
 width="55.000000pt" height="55.000000pt" viewBox="0 0 55.000000 55.000000"
 preserveAspectRatio="xMidYMid meet">

<g transform="translate(0.000000,55.000000) scale(0.100000,-0.100000)"
fill="#000000" stroke="none">
<path d="M0 275 l0 -275 275 0 275 0 0 275 0 275 -275 0 -275 0 0 -275z m510
0 l0 -235 -235 0 -235 0 0 235 0 235 235 0 235 0 0 -235z"/>
<path d="M165 420 c-9 -15 4 -50 20 -50 16 0 29 35 20 50 -3 5 -12 10 -20 10
-8 0 -17 -5 -20 -10z"/>
<path d="M277 363 c-3 -4 26 -7 64 -5 l68 4 4 -96 3 -96 0 97 -1 98 -67 3
c-36 2 -69 -1 -71 -5z"/>
<path d="M136 343 c-10 -10 -7 -101 4 -108 6 -3 10 -30 10 -60 l0 -53 35 0 35
0 0 94 c0 86 5 106 23 87 14 -13 57 -12 57 3 0 8 -10 14 -23 14 -13 0 -28 5
-34 11 -12 12 -97 21 -107 12z"/>
<path d="M370 240 c0 -22 5 -40 10 -40 6 0 10 18 10 40 0 22 -4 40 -10 40 -5
0 -10 -18 -10 -40z"/>
<path d="M342 220 c0 -19 2 -27 5 -17 2 9 2 25 0 35 -3 9 -5 1 -5 -18z"/>
<path d="M302 210 c0 -14 2 -19 5 -12 2 6 2 18 0 25 -3 6 -5 1 -5 -13z"/>
<path d="M376 137 c3 -10 9 -15 12 -12 3 3 0 11 -7 18 -10 9 -11 8 -5 -6z"/>
</g>
</svg>
