<?xml version="1.0" standalone="no"?>
<!DOCTYPE svg PUBLIC "-//W3C//DTD SVG 20010904//EN"
 "http://www.w3.org/TR/2001/REC-SVG-20010904/DTD/svg10.dtd">
<svg version="1.0" xmlns="http://www.w3.org/2000/svg"
 width="55.000000pt" height="55.000000pt" viewBox="0 0 55.000000 55.000000"
 preserveAspectRatio="xMidYMid meet">

<g transform="translate(0.000000,55.000000) scale(0.100000,-0.100000)"
fill="#000000" stroke="none">
<path d="M10 275 l0 -275 268 2 267 3 0 270 0 270 -267 3 -268 2 0 -275z m500
0 l0 -235 -235 0 -235 0 0 235 0 235 235 0 235 0 0 -235z"/>
<path d="M255 420 c-9 -15 4 -50 20 -50 16 0 29 35 20 50 -3 5 -12 10 -20 10
-8 0 -17 -5 -20 -10z"/>
<path d="M166 329 l-28 -25 27 -18 c26 -17 27 -17 42 3 26 38 33 22 33 -73 l0
-94 35 0 35 0 0 94 c0 95 7 111 33 73 15 -20 16 -20 42 -3 l27 18 -28 25 c-25
21 -29 22 -32 8 -3 -14 -6 -15 -25 -3 -26 15 -74 15 -104 -2 -18 -10 -22 -9
-25 5 -3 14 -7 13 -32 -8z"/>
</g>
</svg>
