<?xml version="1.0" standalone="no"?>
<!DOCTYPE svg PUBLIC "-//W3C//DTD SVG 20010904//EN"
 "http://www.w3.org/TR/2001/REC-SVG-20010904/DTD/svg10.dtd">
<svg version="1.0" xmlns="http://www.w3.org/2000/svg"
 width="55.000000pt" height="55.000000pt" viewBox="0 0 55.000000 55.000000"
 preserveAspectRatio="xMidYMid meet">

<g transform="translate(0.000000,55.000000) scale(0.100000,-0.100000)"
fill="#000000" stroke="none">
<path d="M10 275 l0 -275 268 2 267 3 0 270 0 270 -267 3 -268 2 0 -275z m500
0 l0 -235 -235 0 -235 0 0 235 0 235 235 0 235 0 0 -235z"/>
<path d="M352 407 c-14 -15 -20 -30 -16 -41 5 -13 -7 -32 -42 -67 -26 -27 -44
-49 -38 -49 5 0 30 20 54 45 32 33 49 43 65 39 24 -6 70 35 48 43 -7 3 -13 11
-13 19 0 7 -6 11 -14 8 -8 -3 -16 2 -18 11 -2 14 -7 13 -26 -8z"/>
<path d="M183 370 c-42 -25 -63 -68 -63 -126 0 -41 5 -51 39 -85 34 -35 44
-39 87 -39 61 0 110 28 130 75 23 56 16 115 -13 115 -12 0 -14 -8 -10 -32 7
-45 -16 -94 -52 -112 -48 -25 -79 -20 -118 19 -32 32 -35 40 -30 76 3 22 11
47 19 56 21 25 74 43 107 37 24 -5 31 -3 31 9 0 32 -78 37 -127 7z"/>
<path d="M210 300 c-41 -41 -14 -110 43 -110 33 0 67 32 67 62 l0 21 -23 -21
c-48 -45 -87 -13 -48 39 21 29 21 29 1 29 -11 0 -29 -9 -40 -20z"/>
</g>
</svg>
